<svg width="256" height="256" viewBox="0 0 256 256" fill="none" xmlns="http://www.w3.org/2000/svg">
<rect width="256" height="256" rx="60" fill="#242938"/>
<g fill-rule="evenodd" transform="translate(35, 0) scale(0.4)">
    <path d="M321 242.017v178.017l25.75-.267 25.75-.267.253-177.75.253-177.75H321zM159 145.5V199h52V92h-52zM76 357v178h52V179H76zm164-124.017V287H292.017l-.258-53.75-.259-53.75-25.75-.267-25.75-.267zM159 365v54h52V311h-52zm81 88v54h52V399h-52z" fill="#ffffff"/>
    <path d="M159 255.5V281h52v-51h-52z" fill="#ffca00"/>
    <path d="M240 343.5V369h52v-51h-52z" fill="#e70488"/>
</g>
</svg>